<svg fill="none" xmlns="http://www.w3.org/2000/svg" viewBox="0 0 930 712"><path fill-rule="evenodd" clip-rule="evenodd" d="M528.7 341.4c-13.4 15-30 26.2-47.8 36-25.5 14-50.9 28.2-76.8 41.6a411.6 411.6 0 0 1-51 23.5 222.3 222.3 0 0 1-77.8 12.8 257 257 0 0 1-76.3-12.6c-22.8-7.3-44.5-18-65.4-31.4A311.1 311.1 0 0 1 68 354.9a273.9 273.9 0 0 1-39.4-58.3C9.8 259 .2 220.6.7 182.2c.3-24.7 4.6-48.1 13.5-70A194 194 0 0 1 45.3 61a163.4 163.4 0 0 1 36.3-30.8 179 179 0 0 1 53-23.3c29.9-8 61.6-9 94.8-3.2a355.4 355.4 0 0 1 78.3 24.7c11.6 5 22.8 12 34.1 18.2 15.9 8.6 31.8 17 47.6 25.8 14.7 8.1 29.4 16.4 43.9 25a481.7 481.7 0 0 1 53.8 35.1c16 12.7 30.5 27 42.5 43.2a156.7 156.7 0 0 1 25.8 53.6c7.8 29.8 5.4 57-5.9 81.9a114.4 114.4 0 0 1-20.8 30.2Z" fill="#FFE6EC"/><path fill-rule="evenodd" clip-rule="evenodd" d="M462.2 274.6c17.3-10.3 36.5-16 56.4-20 28.5-5.9 56.9-11.7 85.6-16.7 18.3-3.3 36.8-6.5 55.6-7.2a222 222 0 0 1 78 11 256.7 256.7 0 0 1 69 34.8c19.5 13.8 37 30.4 53 49.5a310.8 310.8 0 0 1 45.5 73.2 273.5 273.5 0 0 1 20 67.4c6.9 41.5 4.6 81-7.4 117.4a191 191 0 0 1-33.8 62.7 193.7 193.7 0 0 1-44.9 39.5c-13.3 8.5-28.3 14-43.8 18.5A178.8 178.8 0 0 1 738 711c-30.9-1.3-61.4-10-91.3-25.4a355 355 0 0 1-67.3-46.8c-9.6-8.3-18-18.3-27-27.6-12.6-12.9-25.3-25.7-37.7-38.8-11.6-12.1-23.1-24.4-34.4-36.9a481.3 481.3 0 0 1-40.7-49.6 226 226 0 0 1-27.6-53.8 156.5 156.5 0 0 1-8.7-58.8 119.3 119.3 0 0 1 30.1-76.3c8.3-9.3 18.2-16.4 28.8-22.5Z" fill="#F4FAFB"/></svg>